<svg width="109" height="22" viewBox="0 0 109 22" fill="none" xmlns="http://www.w3.org/2000/svg">
<mask id="path-1-inside-1_105_4" fill="white">
<path d="M0.728 0.480013H7.208V16.248H15.596V21H0.728V0.480013ZM27.9291 21.468C24.3531 21.468 21.6651 20.628 19.8651 18.948C18.0891 17.244 17.2011 14.52 17.2011 10.776C17.2011 7.10401 18.1851 4.42801 20.1531 2.74801C22.1211 1.06801 24.7251 0.228014 27.9651 0.228014C34.7811 0.228014 38.1891 3.62401 38.1891 10.416C38.1891 13.848 37.3491 16.548 35.6691 18.516C34.0131 20.484 31.4331 21.468 27.9291 21.468ZM27.7851 17.22C28.4571 17.22 29.0211 17.112 29.4771 16.896C29.9331 16.656 30.2931 16.248 30.5571 15.672C31.0611 14.688 31.3131 13.08 31.3131 10.848C31.3131 8.66401 31.0611 7.08001 30.5571 6.09601C30.0531 5.08801 29.1291 4.56001 27.7851 4.51201C27.2811 4.51201 26.7531 4.57201 26.2011 4.69201C25.6731 4.78801 25.3371 4.93201 25.1931 5.12401C24.9051 5.46001 24.6771 6.18001 24.5091 7.28401C24.3651 8.36401 24.2931 9.55201 24.2931 10.848C24.2931 12.864 24.4851 14.34 24.8691 15.276C25.1331 15.972 25.5051 16.476 25.9851 16.788C26.4651 17.076 27.0651 17.22 27.7851 17.22ZM52.5823 16.5H46.6063L45.5263 21H38.9023L45.5263 0.480013H53.9863L60.3223 21H53.6623L52.5823 16.5ZM49.5583 4.90801L47.4343 12.504H51.7183L49.7023 4.90801H49.5583ZM77.9165 17.076V21H61.2845V16.896L71.0405 4.44001H61.5725V0.480013H77.6285V4.62001L68.0165 17.076H77.9165ZM80.6758 0.480013H87.1558V21H80.6758V0.480013ZM99.08 0.372015C101.024 0.372015 102.668 0.552015 104.012 0.912014C105.356 1.27201 106.424 1.96801 107.216 3.00002C108.032 4.00801 108.44 5.46001 108.44 7.35601C108.44 8.19601 108.308 9.06001 108.044 9.94801C107.804 10.812 107.492 11.568 107.108 12.216C106.748 12.864 106.424 13.284 106.136 13.476C105.8 13.716 105.056 13.908 103.904 14.052C102.752 14.172 101.396 14.232 99.836 14.232C99.284 14.232 98.432 14.208 97.28 14.16V21H90.8V0.480013C93.32 0.408014 96.08 0.372015 99.08 0.372015ZM101.78 9.62401C102.02 9.31201 102.14 8.68801 102.14 7.75201C102.14 6.52801 101.876 5.66401 101.348 5.16001C100.844 4.65601 99.956 4.40401 98.684 4.40401C98.252 4.40401 97.784 4.44001 97.28 4.51201V9.98401C97.52 10.008 97.988 10.02 98.684 10.02C100.532 10.02 101.564 9.88801 101.78 9.62401Z"/>
</mask>
<path d="M0.728 0.480013H7.208V16.248H15.596V21H0.728V0.480013ZM27.9291 21.468C24.3531 21.468 21.6651 20.628 19.8651 18.948C18.0891 17.244 17.2011 14.52 17.2011 10.776C17.2011 7.10401 18.1851 4.42801 20.1531 2.74801C22.1211 1.06801 24.7251 0.228014 27.9651 0.228014C34.7811 0.228014 38.1891 3.62401 38.1891 10.416C38.1891 13.848 37.3491 16.548 35.6691 18.516C34.0131 20.484 31.4331 21.468 27.9291 21.468ZM27.7851 17.22C28.4571 17.22 29.0211 17.112 29.4771 16.896C29.9331 16.656 30.2931 16.248 30.5571 15.672C31.0611 14.688 31.3131 13.08 31.3131 10.848C31.3131 8.66401 31.0611 7.08001 30.5571 6.09601C30.0531 5.08801 29.1291 4.56001 27.7851 4.51201C27.2811 4.51201 26.7531 4.57201 26.2011 4.69201C25.6731 4.78801 25.3371 4.93201 25.1931 5.12401C24.9051 5.46001 24.6771 6.18001 24.5091 7.28401C24.3651 8.36401 24.2931 9.55201 24.2931 10.848C24.2931 12.864 24.4851 14.34 24.8691 15.276C25.1331 15.972 25.5051 16.476 25.9851 16.788C26.4651 17.076 27.0651 17.22 27.7851 17.22ZM52.5823 16.5H46.6063L45.5263 21H38.9023L45.5263 0.480013H53.9863L60.3223 21H53.6623L52.5823 16.5ZM49.5583 4.90801L47.4343 12.504H51.7183L49.7023 4.90801H49.5583ZM77.9165 17.076V21H61.2845V16.896L71.0405 4.44001H61.5725V0.480013H77.6285V4.62001L68.0165 17.076H77.9165ZM80.6758 0.480013H87.1558V21H80.6758V0.480013ZM99.08 0.372015C101.024 0.372015 102.668 0.552015 104.012 0.912014C105.356 1.27201 106.424 1.96801 107.216 3.00002C108.032 4.00801 108.44 5.46001 108.44 7.35601C108.44 8.19601 108.308 9.06001 108.044 9.94801C107.804 10.812 107.492 11.568 107.108 12.216C106.748 12.864 106.424 13.284 106.136 13.476C105.8 13.716 105.056 13.908 103.904 14.052C102.752 14.172 101.396 14.232 99.836 14.232C99.284 14.232 98.432 14.208 97.28 14.16V21H90.8V0.480013C93.32 0.408014 96.08 0.372015 99.08 0.372015ZM101.78 9.62401C102.02 9.31201 102.14 8.68801 102.14 7.75201C102.14 6.52801 101.876 5.66401 101.348 5.16001C100.844 4.65601 99.956 4.40401 98.684 4.40401C98.252 4.40401 97.784 4.44001 97.28 4.51201V9.98401C97.52 10.008 97.988 10.02 98.684 10.02C100.532 10.02 101.564 9.88801 101.78 9.62401Z" fill="white"/>
<path d="M0.728 0.480013V-0.519987H-0.272V0.480013H0.728ZM7.208 0.480013H8.208V-0.519987H7.208V0.480013ZM7.208 16.248H6.208V17.248H7.208V16.248ZM15.596 16.248H16.596V15.248H15.596V16.248ZM15.596 21V22H16.596V21H15.596ZM0.728 21H-0.272V22H0.728V21ZM0.728 1.48001H7.208V-0.519987H0.728V1.48001ZM6.208 0.480013V16.248H8.208V0.480013H6.208ZM7.208 17.248H15.596V15.248H7.208V17.248ZM14.596 16.248V21H16.596V16.248H14.596ZM15.596 20H0.728V22H15.596V20ZM1.728 21V0.480013H-0.272V21H1.728ZM19.8651 18.948L19.1727 19.6697L19.1828 19.6791L19.8651 18.948ZM20.1531 2.74801L19.5038 1.98745L20.1531 2.74801ZM35.6691 18.516L34.9085 17.8667L34.9039 17.8722L35.6691 18.516ZM29.4771 16.896L29.9052 17.7998L29.9242 17.7907L29.9428 17.7809L29.4771 16.896ZM30.5571 15.672L29.6671 15.2161L29.6571 15.2355L29.648 15.2554L30.5571 15.672ZM30.5571 6.09601L29.6626 6.54325L29.6671 6.55189L30.5571 6.09601ZM27.7851 4.51201L27.8208 3.51265L27.8029 3.51201H27.7851V4.51201ZM26.2011 4.69201L26.38 5.67588L26.3968 5.67282L26.4135 5.66919L26.2011 4.69201ZM25.1931 5.12401L25.9524 5.77481L25.9735 5.75007L25.9931 5.72401L25.1931 5.12401ZM24.5091 7.28402L23.5205 7.13357L23.5191 7.1427L23.5179 7.15185L24.5091 7.28402ZM24.8691 15.276L25.8041 14.9214L25.7993 14.9088L25.7943 14.8965L24.8691 15.276ZM25.9851 16.788L25.4401 17.6265L25.4552 17.6363L25.4706 17.6455L25.9851 16.788ZM27.9291 20.468C24.4929 20.468 22.0933 19.6598 20.5474 18.217L19.1828 19.6791C21.2369 21.5963 24.2133 22.468 27.9291 22.468V20.468ZM20.5574 18.2264C19.0603 16.79 18.2011 14.388 18.2011 10.776H16.2011C16.2011 14.652 17.1179 17.698 19.1728 19.6696L20.5574 18.2264ZM18.2011 10.776C18.2011 7.2696 19.1382 4.92923 20.8024 3.50858L19.5038 1.98745C17.232 3.9268 16.2011 6.93843 16.2011 10.776H18.2011ZM20.8024 3.50858C22.5472 2.01905 24.9012 1.22801 27.9651 1.22801V-0.771986C24.549 -0.771986 21.695 0.11698 19.5038 1.98745L20.8024 3.50858ZM27.9651 1.22801C31.2198 1.22801 33.477 2.03827 34.9272 3.48337C36.3768 4.92781 37.1891 7.17505 37.1891 10.416H39.1891C39.1891 6.86498 38.2974 4.01822 36.339 2.06666C34.3812 0.115754 31.5264 -0.771986 27.9651 -0.771986V1.22801ZM37.1891 10.416C37.1891 13.6886 36.3897 16.1317 34.9085 17.8668L36.4297 19.1653C38.3085 16.9643 39.1891 14.0075 39.1891 10.416H37.1891ZM34.9039 17.8722C33.5002 19.5404 31.2507 20.468 27.9291 20.468V22.468C31.6154 22.468 34.526 21.4277 36.4342 19.1599L34.9039 17.8722ZM27.7851 18.22C28.5583 18.22 29.2787 18.0965 29.9052 17.7998L29.049 15.9923C28.7635 16.1275 28.3559 16.22 27.7851 16.22V18.22ZM29.9428 17.7809C30.6357 17.4163 31.1318 16.8182 31.4662 16.0887L29.648 15.2554C29.4544 15.6778 29.2305 15.8958 29.0113 16.0111L29.9428 17.7809ZM31.4471 16.1279C32.0656 14.9204 32.3131 13.1085 32.3131 10.848H30.3131C30.3131 13.0515 30.0566 14.4556 29.6671 15.2161L31.4471 16.1279ZM32.3131 10.848C32.3131 8.6313 32.0646 6.84571 31.4471 5.64014L29.6671 6.55189C30.0576 7.31432 30.3131 8.69673 30.3131 10.848H32.3131ZM31.4515 5.6488C30.7492 4.24421 29.446 3.57069 27.8208 3.51265L27.7494 5.51138C28.8122 5.54934 29.357 5.93182 29.6627 6.54323L31.4515 5.6488ZM27.7851 3.51201C27.2017 3.51201 26.6022 3.58146 25.9887 3.71484L26.4135 5.66919C26.904 5.56257 27.3605 5.51201 27.7851 5.51201V3.51201ZM26.0222 3.70815C25.7153 3.76395 25.4201 3.84104 25.1592 3.95287C24.9077 4.06065 24.6113 4.23314 24.3931 4.52402L25.9931 5.72401C25.9189 5.82289 25.8625 5.82738 25.947 5.79116C26.0221 5.75899 26.1589 5.71608 26.38 5.67588L26.0222 3.70815ZM24.4338 4.47322C24.1614 4.79101 23.9827 5.20384 23.8528 5.61412C23.7176 6.04096 23.609 6.55208 23.5205 7.13357L25.4977 7.43446C25.5772 6.91195 25.6666 6.51107 25.7594 6.21791C25.8055 6.0724 25.849 5.96434 25.8868 5.88704C25.9054 5.84899 25.9212 5.82134 25.9333 5.80223C25.9392 5.7928 25.9439 5.78597 25.9473 5.78137C25.9507 5.77677 25.9524 5.77474 25.9524 5.77481L24.4338 4.47322ZM23.5179 7.15185C23.3671 8.28294 23.2931 9.51582 23.2931 10.848H25.2931C25.2931 9.58821 25.3631 8.44509 25.5003 7.41618L23.5179 7.15185ZM23.2931 10.848C23.2931 12.8908 23.4824 14.5307 23.9439 15.6556L25.7943 14.8965C25.4878 14.1494 25.2931 12.8372 25.2931 10.848H23.2931ZM23.9341 15.6307C24.2508 16.4657 24.7352 17.1682 25.4401 17.6265L26.5301 15.9496C26.275 15.7838 26.0154 15.4783 25.8041 14.9214L23.9341 15.6307ZM25.4706 17.6455C26.1446 18.0499 26.9348 18.22 27.7851 18.22V16.22C27.1954 16.22 26.7856 16.1021 26.4996 15.9305L25.4706 17.6455ZM52.5823 16.5L53.5547 16.2666L53.3707 15.5H52.5823V16.5ZM46.6063 16.5V15.5H45.8179L45.634 16.2666L46.6063 16.5ZM45.5263 21V22H46.3147L46.4987 21.2334L45.5263 21ZM38.9023 21L37.9507 20.6928L37.5287 22H38.9023V21ZM45.5263 0.480013V-0.519987H44.7983L44.5747 0.172815L45.5263 0.480013ZM53.9863 0.480013L54.9418 0.184985L54.7242 -0.519987H53.9863V0.480013ZM60.3223 21V22H61.6777L61.2778 20.705L60.3223 21ZM53.6623 21L52.69 21.2334L52.8739 22H53.6623V21ZM49.5583 4.90801V3.90801H48.7996L48.5953 4.63872L49.5583 4.90801ZM47.4343 12.504L46.4713 12.2347L46.1164 13.504H47.4343V12.504ZM51.7183 12.504V13.504H53.0184L52.6849 12.2475L51.7183 12.504ZM49.7023 4.90801L50.6689 4.65149L50.4716 3.90801H49.7023V4.90801ZM52.5823 15.5H46.6063V17.5H52.5823V15.5ZM45.634 16.2666L44.554 20.7666L46.4987 21.2334L47.5787 16.7334L45.634 16.2666ZM45.5263 20H38.9023V22H45.5263V20ZM39.854 21.3072L46.478 0.787211L44.5747 0.172815L37.9507 20.6928L39.854 21.3072ZM45.5263 1.48001H53.9863V-0.519987H45.5263V1.48001ZM53.0309 0.775042L59.3669 21.295L61.2778 20.705L54.9418 0.184985L53.0309 0.775042ZM60.3223 20H53.6623V22H60.3223V20ZM54.6347 20.7666L53.5547 16.2666L51.61 16.7334L52.69 21.2334L54.6347 20.7666ZM48.5953 4.63872L46.4713 12.2347L48.3974 12.7733L50.5214 5.17731L48.5953 4.63872ZM47.4343 13.504H51.7183V11.504H47.4343V13.504ZM52.6849 12.2475L50.6689 4.65149L48.7358 5.16454L50.7518 12.7605L52.6849 12.2475ZM49.7023 3.90801H49.5583V5.90801H49.7023V3.90801ZM77.9165 17.076H78.9165V16.076H77.9165V17.076ZM77.9165 21V22H78.9165V21H77.9165ZM61.2845 21H60.2845V22H61.2845V21ZM61.2845 16.896L60.4972 16.2794L60.2845 16.551V16.896H61.2845ZM71.0405 4.44002L71.8278 5.05663L73.094 3.44002H71.0405V4.44002ZM61.5725 4.44002H60.5725V5.44002H61.5725V4.44002ZM61.5725 0.480013V-0.519987H60.5725V0.480013H61.5725ZM77.6285 0.480013H78.6285V-0.519987H77.6285V0.480013ZM77.6285 4.62001L78.4202 5.23094L78.6285 4.96099V4.62001H77.6285ZM68.0165 17.076L67.2248 16.4651L65.9817 18.076H68.0165V17.076ZM76.9165 17.076V21H78.9165V17.076H76.9165ZM77.9165 20H61.2845V22H77.9165V20ZM62.2845 21V16.896H60.2845V21H62.2845ZM62.0718 17.5126L71.8278 5.05663L70.2532 3.8234L60.4972 16.2794L62.0718 17.5126ZM71.0405 3.44002H61.5725V5.44002H71.0405V3.44002ZM62.5725 4.44002V0.480013H60.5725V4.44002H62.5725ZM61.5725 1.48001H77.6285V-0.519987H61.5725V1.48001ZM76.6285 0.480013V4.62001H78.6285V0.480013H76.6285ZM76.8368 4.00909L67.2248 16.4651L68.8082 17.6869L78.4202 5.23094L76.8368 4.00909ZM68.0165 18.076H77.9165V16.076H68.0165V18.076ZM80.6758 0.480013V-0.519987H79.6758V0.480013H80.6758ZM87.1558 0.480013H88.1558V-0.519987H87.1558V0.480013ZM87.1558 21V22H88.1558V21H87.1558ZM80.6758 21H79.6758V22H80.6758V21ZM80.6758 1.48001H87.1558V-0.519987H80.6758V1.48001ZM86.1558 0.480013V21H88.1558V0.480013H86.1558ZM87.1558 20H80.6758V22H87.1558V20ZM81.6758 21V0.480013H79.6758V21H81.6758ZM107.216 3.00002L106.423 3.60883L106.431 3.61913L106.439 3.62921L107.216 3.00002ZM108.044 9.94802L107.085 9.66305L107.083 9.67169L107.08 9.68037L108.044 9.94802ZM107.108 12.216L106.248 11.7062L106.241 11.7182L106.234 11.7304L107.108 12.216ZM106.136 13.476L105.581 12.644L105.568 12.6529L105.555 12.6623L106.136 13.476ZM103.904 14.052L104.008 15.0466L104.018 15.0456L104.028 15.0443L103.904 14.052ZM97.28 14.16L97.3216 13.1609L96.28 13.1175V14.16H97.28ZM97.28 21V22H98.28V21H97.28ZM90.8 21H89.8V22H90.8V21ZM90.8 0.480013L90.7714 -0.519579L89.8 -0.491823V0.480013H90.8ZM101.78 9.62401L102.554 10.2573L102.563 10.2456L102.573 10.2337L101.78 9.62401ZM101.348 5.16002L100.641 5.86712L100.649 5.87534L100.658 5.88337L101.348 5.16002ZM97.28 4.51201L97.1386 3.52206L96.28 3.64472V4.51201H97.28ZM97.28 9.98401H96.28V10.889L97.1805 10.9791L97.28 9.98401ZM99.08 1.37201C100.968 1.37201 102.52 1.54752 103.753 1.87796L104.271 -0.0539341C102.816 -0.443495 101.08 -0.627985 99.08 -0.627985V1.37201ZM103.753 1.87796C104.9 2.18523 105.774 2.764 106.423 3.60883L108.009 2.3912C107.074 1.17203 105.812 0.358797 104.271 -0.0539341L103.753 1.87796ZM106.439 3.62921C107.057 4.39314 107.44 5.58653 107.44 7.35601H109.44C109.44 5.3335 109.007 3.62289 107.993 2.37082L106.439 3.62921ZM107.44 7.35601C107.44 8.09017 107.325 8.85812 107.085 9.66305L109.003 10.233C109.291 9.26191 109.44 8.30186 109.44 7.35601H107.44ZM107.08 9.68037C106.86 10.4751 106.579 11.1468 106.248 11.7062L107.968 12.7258C108.405 11.9892 108.748 11.149 109.008 10.2157L107.08 9.68037ZM106.234 11.7304C105.882 12.3634 105.655 12.595 105.581 12.644L106.691 14.3081C107.193 13.973 107.614 13.3646 107.982 12.7017L106.234 11.7304ZM105.555 12.6623C105.556 12.6612 105.524 12.6832 105.436 12.7185C105.351 12.7526 105.233 12.7912 105.076 12.8317C104.761 12.9131 104.333 12.9907 103.78 13.0597L104.028 15.0443C104.627 14.9694 105.147 14.8789 105.576 14.7683C105.982 14.6634 106.397 14.5186 106.717 14.2897L105.555 12.6623ZM103.8 13.0574C102.692 13.1728 101.372 13.232 99.836 13.232V15.232C101.42 15.232 102.812 15.1712 104.008 15.0466L103.8 13.0574ZM99.836 13.232C99.3059 13.232 98.4713 13.2088 97.3216 13.1609L97.2384 15.1591C98.3927 15.2072 99.2621 15.232 99.836 15.232V13.232ZM96.28 14.16V21H98.28V14.16H96.28ZM97.28 20H90.8V22H97.28V20ZM91.8 21V0.480013H89.8V21H91.8ZM90.8286 1.47961C93.3375 1.40792 96.0878 1.37201 99.08 1.37201V-0.627985C96.0722 -0.627985 93.3025 -0.591895 90.7714 -0.519579L90.8286 1.47961ZM102.573 10.2337C102.829 9.90078 102.959 9.49234 103.032 9.11086C103.108 8.71495 103.14 8.25665 103.14 7.75201H101.14C101.14 8.18338 101.112 8.50508 101.068 8.73317C101.021 8.97569 100.971 9.03524 100.987 9.01431L102.573 10.2337ZM103.14 7.75201C103.14 6.4304 102.863 5.22349 102.038 4.43666L100.658 5.88337C100.889 6.10453 101.14 6.62562 101.14 7.75201H103.14ZM102.055 4.45291C101.262 3.65968 100.03 3.40401 98.684 3.40401V5.40401C99.8816 5.40401 100.426 5.65235 100.641 5.86712L102.055 4.45291ZM98.684 3.40401C98.1972 3.40401 97.6814 3.44452 97.1386 3.52206L97.4214 5.50196C97.8866 5.43551 98.3068 5.40401 98.684 5.40401V3.40401ZM96.28 4.51201V9.98401H98.28V4.51201H96.28ZM97.1805 10.9791C97.4779 11.0088 97.9949 11.02 98.684 11.02V9.02002C97.9811 9.02002 97.5621 9.00724 97.3795 8.98898L97.1805 10.9791ZM98.684 11.02C99.6233 11.02 100.393 10.9869 100.971 10.9129C101.258 10.8762 101.531 10.8255 101.767 10.7504C101.965 10.6876 102.308 10.5579 102.554 10.2573L101.006 8.99078C101.144 8.82211 101.277 8.8079 101.163 8.8441C101.087 8.86806 100.946 8.89983 100.717 8.9291C100.264 8.98712 99.5927 9.02002 98.684 9.02002V11.02Z" fill="white" mask="url(#path-1-inside-1_105_4)"/>
</svg>
